<svg xmlns="http://www.w3.org/2000/svg" xmlns:xlink="http://www.w3.org/1999/xlink" width="2560" zoomAndPan="magnify" viewBox="0 0 1920 1079.999946" height="1440" preserveAspectRatio="xMidYMid meet" version="1.0"><defs><g/><clipPath id="8a59fdafab"><path d="M 89 645 L 353 645 L 353 666.808594 L 89 666.808594 Z M 89 645 " clip-rule="nonzero"/></clipPath><clipPath id="2daef3700c"><path d="M 42.570312 369.058594 L 399.570312 369.058594 L 399.570312 665 L 42.570312 665 Z M 42.570312 369.058594 " clip-rule="nonzero"/></clipPath><clipPath id="58fea2387c"><rect x="0" width="1452" y="0" height="282"/></clipPath></defs><g clip-path="url(#8a59fdafab)"><path fill="#ffffff" d="M 89.652344 666.105469 C 90.96875 665.664062 92.289062 665.230469 93.609375 664.804688 L 97.578125 663.523438 C 100.238281 662.726562 102.902344 661.929688 105.570312 661.160156 C 108.25 660.417969 110.925781 659.695312 113.621094 658.976562 C 116.316406 658.296875 119.015625 657.628906 121.722656 656.96875 C 132.550781 654.410156 143.488281 652.300781 154.523438 650.640625 C 176.636719 647.316406 198.867188 645.703125 221.226562 645.800781 C 243.578125 645.890625 265.796875 647.65625 287.882812 651.097656 C 298.894531 652.820312 309.820312 654.957031 320.660156 657.507812 L 324.714844 658.5 L 326.738281 658.996094 C 327.414062 659.15625 328.089844 659.328125 328.761719 659.511719 C 331.4375 660.226562 334.136719 660.925781 336.8125 661.679688 C 339.484375 662.4375 342.152344 663.222656 344.8125 664.019531 L 348.785156 665.28125 L 350.769531 665.914062 L 352.746094 666.566406 L 336.324219 663.921875 L 328.109375 662.671875 L 319.898438 661.484375 C 308.957031 659.945312 298.011719 658.601562 287.046875 657.515625 C 265.140625 655.308594 243.191406 654.148438 221.199219 654.027344 C 199.222656 653.933594 177.261719 654.9375 155.324219 657.039062 C 144.359375 658.074219 133.410156 659.371094 122.472656 660.925781 L 114.261719 662.113281 L 106.0625 663.386719 C 103.332031 663.84375 100.597656 664.289062 97.859375 664.726562 C 95.128906 665.183594 92.398438 665.675781 89.652344 666.105469 Z M 89.652344 666.105469 " fill-opacity="1" fill-rule="nonzero"/></g><g clip-path="url(#2daef3700c)"><path fill="#ffffff" d="M 219.261719 385.289062 L 227.40625 384.105469 L 231.046875 376.722656 L 234.691406 384.105469 L 242.832031 385.289062 L 236.941406 391.03125 L 238.332031 399.140625 L 231.046875 395.3125 L 223.765625 399.140625 L 225.15625 391.03125 Z M 389.167969 660.046875 C 385.613281 658.695312 382.042969 657.386719 378.46875 656.078125 C 377.574219 655.746094 376.683594 655.441406 375.777344 655.128906 L 373.078125 654.210938 L 367.667969 652.382812 L 366.3125 651.925781 C 365.859375 651.777344 365.40625 651.640625 364.953125 651.496094 L 362.226562 650.652344 L 356.769531 648.953125 C 354.285156 648.207031 351.789062 647.476562 349.289062 646.769531 L 351.886719 646.769531 L 351.886719 621.558594 L 337.960938 621.558594 C 345.152344 613.4375 371.929688 577.980469 328.707031 541.457031 C 281.007812 501.152344 244.371094 499.886719 223.210938 448.171875 L 221.734375 416.445312 C 222.273438 416.480469 222.8125 416.5 223.355469 416.503906 C 225.265625 416.503906 227.152344 416.277344 229.007812 415.824219 C 230.867188 415.371094 232.644531 414.699219 234.339844 413.816406 C 236.039062 412.933594 237.605469 411.863281 239.042969 410.597656 C 240.480469 409.335938 241.746094 407.921875 242.839844 406.355469 C 241.636719 406.820312 240.402344 407.175781 239.136719 407.421875 C 237.871094 407.671875 236.59375 407.804688 235.304688 407.828125 C 234.015625 407.847656 232.734375 407.757812 231.460938 407.550781 C 230.1875 407.347656 228.941406 407.035156 227.722656 406.609375 C 226.507812 406.1875 225.335938 405.65625 224.210938 405.027344 C 223.085938 404.394531 222.023438 403.671875 221.027344 402.855469 C 220.03125 402.035156 219.113281 401.136719 218.277344 400.15625 C 217.4375 399.175781 216.691406 398.128906 216.039062 397.019531 C 215.386719 395.90625 214.832031 394.746094 214.386719 393.539062 C 213.9375 392.328125 213.597656 391.089844 213.367188 389.820312 C 213.136719 388.550781 213.019531 387.273438 213.015625 385.984375 C 213.011719 384.695312 213.121094 383.414062 213.339844 382.144531 C 213.5625 380.871094 213.894531 379.632812 214.335938 378.417969 C 214.773438 377.207031 215.316406 376.042969 215.964844 374.925781 C 216.609375 373.8125 217.347656 372.761719 218.179688 371.773438 C 219.011719 370.789062 219.921875 369.882812 220.914062 369.058594 C 220.191406 369.132812 219.476562 369.242188 218.765625 369.378906 C 218.050781 369.519531 217.347656 369.691406 216.652344 369.894531 C 215.957031 370.101562 215.269531 370.335938 214.59375 370.601562 C 213.921875 370.871094 213.257812 371.167969 212.613281 371.496094 C 211.964844 371.820312 211.332031 372.179688 210.71875 372.5625 C 210.105469 372.949219 209.507812 373.359375 208.929688 373.800781 C 208.351562 374.242188 207.796875 374.707031 207.261719 375.195312 C 206.726562 375.6875 206.21875 376.199219 205.730469 376.738281 C 205.242188 377.277344 204.78125 377.835938 204.34375 378.414062 C 203.90625 378.992188 203.5 379.59375 203.117188 380.210938 C 202.734375 380.828125 202.382812 381.460938 202.058594 382.109375 C 201.734375 382.757812 201.441406 383.421875 201.179688 384.097656 C 200.914062 384.773438 200.683594 385.460938 200.484375 386.15625 C 200.285156 386.855469 200.117188 387.558594 199.980469 388.273438 C 199.84375 388.984375 199.742188 389.703125 199.671875 390.425781 C 199.601562 391.148438 199.566406 391.871094 199.5625 392.597656 C 199.558594 393.324219 199.585938 394.046875 199.648438 394.769531 C 199.710938 395.492188 199.808594 396.210938 199.9375 396.925781 C 200.066406 397.640625 200.226562 398.347656 200.417969 399.046875 C 200.613281 399.746094 200.835938 400.433594 201.09375 401.113281 C 201.347656 401.792969 201.636719 402.457031 201.953125 403.109375 C 202.269531 403.761719 202.613281 404.402344 202.992188 405.019531 C 203.367188 405.640625 203.769531 406.246094 204.199219 406.828125 C 204.628906 407.414062 205.085938 407.976562 205.566406 408.519531 C 206.050781 409.0625 206.554688 409.582031 207.085938 410.078125 C 207.613281 410.574219 208.164062 411.042969 208.738281 411.488281 C 209.3125 411.933594 209.902344 412.351562 210.515625 412.746094 C 211.125 413.136719 211.753906 413.5 212.394531 413.832031 C 213.039062 414.167969 213.699219 414.46875 214.371094 414.746094 C 215.042969 415.019531 215.726562 415.261719 216.417969 415.472656 C 217.113281 415.683594 217.816406 415.863281 218.527344 416.007812 C 219.238281 416.15625 219.953125 416.269531 220.675781 416.351562 L 219.1875 448.171875 C 198.027344 499.886719 161.394531 501.152344 113.707031 541.457031 C 70.484375 577.980469 97.261719 613.4375 104.453125 621.558594 L 90.527344 621.558594 L 90.527344 646.773438 L 91.363281 646.773438 C 89.402344 647.347656 87.441406 647.933594 85.488281 648.535156 C 81.859375 649.703125 78.226562 650.855469 74.609375 652.039062 C 71.011719 653.296875 67.414062 654.539062 63.835938 655.828125 C 60.273438 657.171875 56.71875 658.535156 53.179688 659.921875 C 49.660156 661.378906 46.148438 662.832031 42.664062 664.34375 C 46.371094 663.484375 50.054688 662.558594 53.734375 661.648438 C 57.425781 660.789062 61.117188 659.929688 64.789062 659.042969 C 68.488281 658.238281 72.175781 657.402344 75.859375 656.574219 L 86.941406 654.253906 C 101.523438 651.3125 116.144531 648.785156 130.820312 646.78125 L 131.453125 646.691406 C 146.335938 644.667969 161.257812 643.148438 176.214844 642.128906 C 191.175781 641.113281 206.144531 640.640625 221.125 640.722656 C 236.101562 640.78125 251.070312 641.367188 266.027344 642.476562 C 279.84375 643.492188 293.636719 644.925781 307.398438 646.78125 C 308.53125 646.925781 309.664062 647.078125 310.789062 647.238281 C 325.679688 649.289062 340.523438 651.820312 355.339844 654.71875 L 360.886719 655.828125 C 362.738281 656.203125 364.597656 656.554688 366.445312 656.957031 L 377.539062 659.320312 L 388.628906 661.804688 C 392.320312 662.667969 396.011719 663.535156 399.730469 664.339844 C 396.230469 662.867188 392.699219 661.460938 389.167969 660.050781 Z M 389.167969 660.046875 " fill-opacity="1" fill-rule="nonzero"/></g><g transform="matrix(1, 0, 0, 1, 427, 447)"><g clip-path="url(#58fea2387c)"><g fill="#ffffff" fill-opacity="1"><g transform="translate(2.568328, 220.434931)"><g><path d="M 6.640625 0 L 6.640625 -16.796875 L 13.484375 -17.421875 C 17.492188 -17.835938 19.5 -19.769531 19.5 -23.21875 L 19.5 -119.65625 L 7.671875 -120.28125 L 7.671875 -137.90625 L 66.984375 -137.90625 C 82.460938 -137.90625 94.519531 -134.273438 103.15625 -127.015625 C 111.800781 -119.753906 116.125 -108.863281 116.125 -94.34375 C 116.125 -79.832031 111.21875 -68.53125 101.40625 -60.4375 C 91.59375 -52.351562 78.597656 -48.3125 62.421875 -48.3125 L 44.796875 -48.3125 L 44.796875 -18.25 L 64.703125 -17.625 L 64.703125 0 Z M 44.796875 -68.4375 L 59.71875 -68.4375 C 79.90625 -68.4375 90 -76.660156 90 -93.109375 C 90 -103.066406 87.40625 -109.664062 82.21875 -112.90625 C 77.039062 -116.15625 68.78125 -117.78125 57.4375 -117.78125 L 44.796875 -117.78125 Z M 44.796875 -68.4375 "/></g></g></g><g fill="#ffffff" fill-opacity="1"><g transform="translate(124.919797, 220.434931)"><g><path d="M 105.546875 0 L 7.046875 0 L 7.046875 -16.796875 L 13.890625 -17.421875 C 17.898438 -17.835938 19.90625 -19.769531 19.90625 -23.21875 L 19.90625 -119.65625 L 8.09375 -120.28125 L 8.09375 -137.90625 L 103.0625 -137.90625 L 103.0625 -103.484375 L 81.90625 -102.03125 L 81.90625 -110.328125 C 81.90625 -112.671875 81.5625 -114.328125 80.875 -115.296875 C 80.1875 -116.265625 78.53125 -116.75 75.90625 -116.75 L 45.203125 -116.75 L 45.203125 -81.296875 L 93.109375 -81.296875 L 93.109375 -60.140625 L 45.203125 -60.140625 L 45.203125 -21.359375 L 78.59375 -21.359375 C 81.082031 -21.359375 82.671875 -21.875 83.359375 -22.90625 C 84.054688 -23.945312 84.40625 -25.644531 84.40625 -28 L 84.40625 -38.359375 L 105.546875 -36.90625 Z M 105.546875 0 "/></g></g></g><g fill="#ffffff" fill-opacity="1"><g transform="translate(238.768893, 220.434931)"><g><path d="M 7.046875 0 L 7.046875 -16.796875 L 13.890625 -17.421875 C 17.898438 -17.835938 19.90625 -19.769531 19.90625 -23.21875 L 19.90625 -119.65625 L 8.09375 -120.28125 L 8.09375 -137.90625 L 64.90625 -137.90625 C 85.226562 -137.90625 101.09375 -132.507812 112.5 -121.71875 C 123.90625 -110.9375 129.609375 -94.972656 129.609375 -73.828125 C 129.609375 -60.691406 127.878906 -49.25 124.421875 -39.5 C 120.960938 -29.757812 116.265625 -22.125 110.328125 -16.59375 C 98.429688 -5.53125 83.632812 0 65.9375 0 Z M 45.203125 -117.78125 L 45.203125 -19.90625 L 66.359375 -19.90625 C 78.242188 -19.90625 87.503906 -24.191406 94.140625 -32.765625 C 100.785156 -41.335938 104.109375 -53.78125 104.109375 -70.09375 C 104.109375 -101.882812 90.628906 -117.78125 63.671875 -117.78125 Z M 45.203125 -117.78125 "/></g></g></g><g fill="#ffffff" fill-opacity="1"><g transform="translate(376.673504, 220.434931)"><g><path d="M 41.6875 -113.640625 L 41.6875 -44.796875 C 41.6875 -35.117188 44 -28.304688 48.625 -24.359375 C 53.257812 -20.421875 59.894531 -18.453125 68.53125 -18.453125 C 77.175781 -18.453125 83.882812 -20.59375 88.65625 -24.875 C 93.425781 -29.164062 95.8125 -35.457031 95.8125 -43.75 L 95.8125 -119.65625 L 83.78125 -120.28125 L 83.78125 -137.90625 L 132.921875 -137.90625 L 132.921875 -121.109375 L 126.078125 -120.484375 C 122.066406 -120.066406 120.0625 -117.992188 120.0625 -114.265625 L 120.0625 -40.234375 C 120.0625 -26.816406 115.359375 -16.304688 105.953125 -8.703125 C 96.554688 -1.097656 83.5625 2.703125 66.96875 2.703125 C 50.382812 2.703125 37.84375 -0.992188 29.34375 -8.390625 C 20.84375 -15.796875 16.59375 -27.515625 16.59375 -43.546875 L 16.59375 -119.65625 L 4.5625 -120.28125 L 4.5625 -137.90625 L 54.75 -137.90625 L 54.75 -121.109375 L 47.90625 -120.484375 C 45.6875 -120.203125 44.09375 -119.613281 43.125 -118.71875 C 42.164062 -117.820312 41.6875 -116.128906 41.6875 -113.640625 Z M 41.6875 -113.640625 "/></g></g></g><g fill="#ffffff" fill-opacity="1"><g transform="translate(513.333873, 220.434931)"><g><path d="M 105.140625 0 L 6.640625 0 L 6.640625 -16.796875 L 13.484375 -17.421875 C 17.492188 -17.835938 19.5 -19.769531 19.5 -23.21875 L 19.5 -119.65625 L 7.671875 -120.28125 L 7.671875 -137.90625 L 57.65625 -137.90625 L 57.65625 -121.109375 L 50.8125 -120.484375 C 46.800781 -120.066406 44.796875 -117.851562 44.796875 -113.84375 L 44.796875 -21.359375 L 79.21875 -21.359375 C 81.15625 -21.359375 82.429688 -21.875 83.046875 -22.90625 C 83.671875 -23.945312 83.984375 -25.644531 83.984375 -28 L 83.984375 -42.515625 L 105.140625 -41.0625 Z M 105.140625 0 "/></g></g></g><g fill="#ffffff" fill-opacity="1"><g transform="translate(624.694439, 220.434931)"><g><path d="M 19.5 -24.265625 L 19.5 -119.65625 L 7.671875 -120.28125 L 7.671875 -137.90625 L 57.859375 -137.90625 L 57.859375 -121.109375 L 51.015625 -120.484375 C 47.003906 -120.066406 45 -117.851562 45 -113.84375 L 45 -18.25 L 56.828125 -17.625 L 56.828125 0 L 6.640625 0 L 6.640625 -16.796875 L 13.484375 -17.421875 C 15.554688 -17.691406 17.078125 -18.273438 18.046875 -19.171875 C 19.015625 -20.078125 19.5 -21.773438 19.5 -24.265625 Z M 19.5 -24.265625 "/></g></g></g><g fill="#ffffff" fill-opacity="1"><g transform="translate(688.358657, 220.434931)"><g/></g></g><g fill="#ffffff" fill-opacity="1"><g transform="translate(729.833748, 220.434931)"><g><path d="M 51.421875 -137.90625 L 86.6875 -44.171875 L 87.09375 -44.171875 L 122.5625 -137.90625 L 163.625 -137.90625 L 163.625 -121.109375 L 156.78125 -120.484375 C 152.625 -120.066406 150.617188 -117.648438 150.765625 -113.234375 L 155.953125 -18.25 L 168.796875 -17.625 L 168.796875 0 L 118.828125 0 L 118.828125 -16.796875 L 126.296875 -17.421875 C 130.023438 -17.691406 131.820312 -19.488281 131.6875 -22.8125 L 127.75 -96.015625 L 127.328125 -96.015625 L 95.390625 -13.265625 L 75.6875 -13.265625 L 44.171875 -95.1875 L 43.75 -95.1875 L 39.609375 -18.25 L 53.09375 -17.625 L 53.09375 0 L 4.140625 0 L 4.140625 -16.796875 L 11.609375 -17.421875 C 14.785156 -17.691406 16.515625 -19.554688 16.796875 -23.015625 L 22.390625 -119.453125 L 9.75 -120.28125 L 9.75 -137.90625 Z M 51.421875 -137.90625 "/></g></g></g><g fill="#ffffff" fill-opacity="1"><g transform="translate(902.784726, 220.434931)"><g><path d="M 14.09375 -23.21875 L 47.484375 -119.859375 L 34.421875 -121.109375 L 34.421875 -137.90625 L 81.90625 -137.90625 L 124.21875 -18.25 L 124.421875 -18.25 L 136.25 -17.625 L 136.25 0 L 82.75 0 L 82.75 -16.796875 L 90.625 -17.421875 C 92.96875 -17.691406 94.554688 -18.242188 95.390625 -19.078125 C 96.222656 -19.910156 96.289062 -21.429688 95.59375 -23.640625 L 91.25 -36.5 L 42.71875 -36.5 L 36.5 -18.25 L 48.9375 -17.625 L 48.9375 0 L 1.03125 0 L 1.03125 -16.796875 L 7.875 -17.421875 C 10.78125 -17.691406 12.851562 -19.625 14.09375 -23.21875 Z M 66.984375 -114.671875 L 47.703125 -55.578125 L 86.265625 -55.578125 L 67.609375 -114.671875 Z M 66.984375 -114.671875 "/></g></g></g><g fill="#ffffff" fill-opacity="1"><g transform="translate(1040.067189, 220.434931)"><g><path d="M 49.984375 -18.65625 C 66.566406 -18.65625 74.859375 -25.296875 74.859375 -38.578125 C 74.859375 -45.484375 71.195312 -50.597656 63.875 -53.921875 C 60 -55.859375 54.984375 -57.65625 48.828125 -59.3125 C 42.679688 -60.96875 37.566406 -62.660156 33.484375 -64.390625 C 29.410156 -66.117188 25.300781 -68.503906 21.15625 -71.546875 C 13 -77.628906 8.921875 -86.992188 8.921875 -99.640625 C 8.921875 -112.296875 13.304688 -122.25 22.078125 -129.5 C 30.859375 -136.757812 42.332031 -140.390625 56.5 -140.390625 C 70.675781 -140.390625 83.847656 -137.554688 96.015625 -131.890625 L 96.015625 -100.78125 L 74.859375 -99.328125 L 74.859375 -111.359375 C 74.859375 -113.429688 74.582031 -114.953125 74.03125 -115.921875 C 72.507812 -118.546875 67.632812 -119.859375 59.40625 -119.859375 C 51.1875 -119.859375 45.101562 -118.40625 41.15625 -115.5 C 37.21875 -112.601562 35.25 -108.113281 35.25 -102.03125 C 35.25 -97.601562 36.910156 -93.734375 40.234375 -90.421875 C 42.441406 -88.203125 45.722656 -86.367188 50.078125 -84.921875 C 54.429688 -83.472656 59.0625 -81.988281 63.96875 -80.46875 C 68.882812 -78.945312 73.242188 -77.285156 77.046875 -75.484375 C 80.847656 -73.679688 84.820312 -71.191406 88.96875 -68.015625 C 97.394531 -61.796875 101.609375 -52.1875 101.609375 -39.1875 C 101.609375 -26.195312 96.941406 -15.96875 87.609375 -8.5 C 78.285156 -1.03125 65.984375 2.703125 50.703125 2.703125 C 35.421875 2.703125 21.703125 -0.132812 9.546875 -5.8125 L 9.546875 -38.578125 L 30.6875 -40.015625 L 30.6875 -27.375 C 30.6875 -25.300781 30.960938 -23.78125 31.515625 -22.8125 C 32.066406 -21.84375 33.757812 -20.90625 36.59375 -20 C 39.4375 -19.101562 43.898438 -18.65625 49.984375 -18.65625 Z M 49.984375 -18.65625 "/></g></g></g><g fill="#ffffff" fill-opacity="1"><g transform="translate(1148.317126, 220.434931)"><g><path d="M 81.5 -27.78125 C 79.144531 -7.457031 65.523438 2.703125 40.640625 2.703125 C 27.648438 2.703125 16.039062 -0.203125 5.8125 -6.015625 L 5.8125 -42.296875 L 26.953125 -43.75 L 26.953125 -27.375 C 26.953125 -25.300781 27.226562 -23.78125 27.78125 -22.8125 C 28.34375 -21.84375 29.796875 -20.90625 32.140625 -20 C 34.492188 -19.101562 38.125 -18.65625 43.03125 -18.65625 C 47.9375 -18.65625 51.492188 -20.140625 53.703125 -23.109375 C 55.921875 -26.085938 57.03125 -30.894531 57.03125 -37.53125 L 57.03125 -119.453125 L 40.859375 -120.28125 L 40.859375 -137.90625 L 95.1875 -137.90625 L 95.1875 -121.109375 L 88.34375 -120.484375 C 84.332031 -120.066406 82.328125 -117.925781 82.328125 -114.0625 L 82.328125 -49.5625 C 82.328125 -39.75 82.050781 -32.488281 81.5 -27.78125 Z M 81.5 -27.78125 "/></g></g></g><g fill="#ffffff" fill-opacity="1"><g transform="translate(1246.613135, 220.434931)"><g><path d="M 19.5 -24.265625 L 19.5 -119.65625 L 7.671875 -120.28125 L 7.671875 -137.90625 L 57.859375 -137.90625 L 57.859375 -121.109375 L 51.015625 -120.484375 C 47.003906 -120.066406 45 -117.851562 45 -113.84375 L 45 -18.25 L 56.828125 -17.625 L 56.828125 0 L 6.640625 0 L 6.640625 -16.796875 L 13.484375 -17.421875 C 15.554688 -17.691406 17.078125 -18.273438 18.046875 -19.171875 C 19.015625 -20.078125 19.5 -21.773438 19.5 -24.265625 Z M 19.5 -24.265625 "/></g></g></g><g fill="#ffffff" fill-opacity="1"><g transform="translate(1310.277299, 220.434931)"><g><path d="M 7.046875 0 L 7.046875 -16.796875 L 13.890625 -17.421875 C 17.898438 -17.835938 19.90625 -19.769531 19.90625 -23.21875 L 19.90625 -119.65625 L 8.09375 -120.28125 L 8.09375 -137.90625 L 64.90625 -137.90625 C 85.226562 -137.90625 101.09375 -132.507812 112.5 -121.71875 C 123.90625 -110.9375 129.609375 -94.972656 129.609375 -73.828125 C 129.609375 -60.691406 127.878906 -49.25 124.421875 -39.5 C 120.960938 -29.757812 116.265625 -22.125 110.328125 -16.59375 C 98.429688 -5.53125 83.632812 0 65.9375 0 Z M 45.203125 -117.78125 L 45.203125 -19.90625 L 66.359375 -19.90625 C 78.242188 -19.90625 87.503906 -24.191406 94.140625 -32.765625 C 100.785156 -41.335938 104.109375 -53.78125 104.109375 -70.09375 C 104.109375 -101.882812 90.628906 -117.78125 63.671875 -117.78125 Z M 45.203125 -117.78125 "/></g></g></g></g></g></svg>