<svg xmlns="http://www.w3.org/2000/svg" xmlns:xlink="http://www.w3.org/1999/xlink" width="2530" zoomAndPan="magnify" viewBox="0 0 1897.5 432.749984" height="577" preserveAspectRatio="xMidYMid meet" version="1.0"><defs><g/><clipPath id="41bca4920f"><path d="M 53 362 L 354 362 L 354 385.480469 L 53 385.480469 Z M 53 362 " clip-rule="nonzero"/></clipPath><clipPath id="b84de08e98"><path d="M 0.296875 46.675781 L 407.3125 46.675781 L 407.3125 384 L 0.296875 384 Z M 0.296875 46.675781 " clip-rule="nonzero"/></clipPath><clipPath id="fe3fa72aba"><path d="M 447 75 L 1896.703125 75 L 1896.703125 357 L 447 357 Z M 447 75 " clip-rule="nonzero"/></clipPath><clipPath id="5c6eefbf23"><rect x="0" width="1450" y="0" height="282"/></clipPath></defs><g clip-path="url(#41bca4920f)"><path fill="#f5f5f5" d="M 53.976562 385.296875 C 55.476562 384.792969 56.980469 384.300781 58.484375 383.816406 L 63.007812 382.355469 C 66.039062 381.449219 69.078125 380.539062 72.121094 379.660156 C 75.175781 378.8125 78.226562 377.992188 81.296875 377.171875 C 84.371094 376.398438 87.449219 375.636719 90.53125 374.886719 C 102.878906 371.96875 115.34375 369.5625 127.925781 367.667969 C 153.128906 363.878906 178.476562 362.042969 203.964844 362.152344 C 229.445312 362.257812 254.773438 364.269531 279.949219 368.191406 C 292.503906 370.15625 304.957031 372.589844 317.316406 375.5 L 321.9375 376.628906 L 324.246094 377.195312 C 325.015625 377.378906 325.78125 377.574219 326.546875 377.78125 C 329.601562 378.597656 332.679688 379.394531 335.726562 380.253906 C 338.777344 381.117188 341.8125 382.011719 344.847656 382.921875 L 349.375 384.363281 L 351.636719 385.082031 L 353.894531 385.824219 L 335.167969 382.808594 L 325.808594 381.382812 L 316.445312 380.03125 C 303.972656 378.277344 291.492188 376.746094 278.996094 375.507812 C 254.023438 372.992188 229.003906 371.667969 203.933594 371.53125 C 178.878906 371.421875 153.847656 372.566406 128.835938 374.964844 C 116.335938 376.144531 103.855469 377.621094 91.386719 379.394531 L 82.027344 380.75 L 72.679688 382.199219 C 69.570312 382.71875 66.453125 383.230469 63.332031 383.730469 C 60.21875 384.246094 57.105469 384.808594 53.976562 385.296875 Z M 53.976562 385.296875 " fill-opacity="1" fill-rule="nonzero"/></g><g clip-path="url(#b84de08e98)"><path fill="#f5f5f5" d="M 201.722656 65.175781 L 211.007812 63.828125 L 215.160156 55.414062 L 219.3125 63.828125 L 228.59375 65.175781 L 221.878906 71.722656 L 223.464844 80.96875 L 215.160156 76.605469 L 206.855469 80.96875 L 208.441406 71.722656 Z M 395.410156 378.394531 C 391.359375 376.851562 387.289062 375.359375 383.214844 373.871094 C 382.195312 373.492188 381.179688 373.140625 380.144531 372.789062 L 377.066406 371.742188 L 370.902344 369.65625 L 369.355469 369.132812 C 368.839844 368.964844 368.324219 368.808594 367.808594 368.644531 L 364.699219 367.679688 L 358.476562 365.746094 C 355.644531 364.894531 352.800781 364.0625 349.949219 363.257812 L 352.910156 363.257812 L 352.910156 334.515625 L 337.035156 334.515625 C 345.234375 325.257812 375.761719 284.839844 326.488281 243.203125 C 272.113281 197.257812 230.347656 195.8125 206.226562 136.863281 L 204.542969 100.695312 C 205.15625 100.738281 205.769531 100.757812 206.386719 100.761719 C 208.570312 100.761719 210.71875 100.503906 212.835938 99.988281 C 214.953125 99.46875 216.980469 98.707031 218.914062 97.699219 C 220.847656 96.691406 222.632812 95.46875 224.273438 94.03125 C 225.910156 92.59375 227.355469 90.980469 228.601562 89.191406 C 227.230469 89.722656 225.824219 90.128906 224.382812 90.410156 C 222.9375 90.691406 221.484375 90.847656 220.011719 90.871094 C 218.542969 90.894531 217.082031 90.792969 215.628906 90.558594 C 214.179688 90.324219 212.757812 89.96875 211.371094 89.484375 C 209.984375 89 208.648438 88.398438 207.367188 87.679688 C 206.082031 86.960938 204.875 86.132812 203.738281 85.203125 C 202.601562 84.269531 201.554688 83.242188 200.601562 82.125 C 199.644531 81.007812 198.792969 79.816406 198.050781 78.550781 C 197.304688 77.28125 196.675781 75.960938 196.164062 74.582031 C 195.652344 73.203125 195.265625 71.792969 195.003906 70.34375 C 194.742188 68.898438 194.609375 67.441406 194.601562 65.96875 C 194.597656 64.5 194.722656 63.039062 194.972656 61.59375 C 195.226562 60.144531 195.605469 58.730469 196.105469 57.347656 C 196.609375 55.964844 197.226562 54.640625 197.964844 53.367188 C 198.703125 52.09375 199.542969 50.898438 200.492188 49.773438 C 201.441406 48.648438 202.480469 47.617188 203.609375 46.675781 C 202.785156 46.761719 201.96875 46.882812 201.15625 47.042969 C 200.34375 47.203125 199.542969 47.398438 198.75 47.632812 C 197.953125 47.863281 197.171875 48.132812 196.40625 48.4375 C 195.636719 48.742188 194.882812 49.078125 194.144531 49.453125 C 193.40625 49.828125 192.6875 50.234375 191.984375 50.671875 C 191.285156 51.109375 190.605469 51.582031 189.945312 52.082031 C 189.289062 52.582031 188.65625 53.113281 188.046875 53.671875 C 187.4375 54.234375 186.855469 54.820312 186.296875 55.429688 C 185.742188 56.042969 185.214844 56.679688 184.71875 57.339844 C 184.21875 58.003906 183.753906 58.683594 183.320312 59.386719 C 182.882812 60.089844 182.480469 60.8125 182.113281 61.554688 C 181.746094 62.292969 181.410156 63.050781 181.109375 63.820312 C 180.808594 64.589844 180.546875 65.375 180.316406 66.167969 C 180.089844 66.964844 179.898438 67.769531 179.742188 68.582031 C 179.589844 69.394531 179.472656 70.210938 179.390625 71.035156 C 179.3125 71.859375 179.269531 72.683594 179.265625 73.511719 C 179.261719 74.335938 179.296875 75.164062 179.367188 75.988281 C 179.4375 76.8125 179.546875 77.628906 179.695312 78.445312 C 179.839844 79.257812 180.023438 80.0625 180.242188 80.859375 C 180.464844 81.660156 180.71875 82.445312 181.011719 83.21875 C 181.304688 83.992188 181.628906 84.75 181.992188 85.496094 C 182.351562 86.238281 182.746094 86.964844 183.175781 87.671875 C 183.601562 88.378906 184.0625 89.066406 184.554688 89.734375 C 185.042969 90.398438 185.5625 91.042969 186.113281 91.660156 C 186.664062 92.277344 187.238281 92.871094 187.84375 93.433594 C 188.445312 94 189.074219 94.539062 189.726562 95.046875 C 190.378906 95.554688 191.054688 96.03125 191.75 96.476562 C 192.449219 96.921875 193.164062 97.335938 193.898438 97.71875 C 194.632812 98.097656 195.382812 98.445312 196.148438 98.757812 C 196.914062 99.070312 197.691406 99.34375 198.484375 99.585938 C 199.273438 99.828125 200.074219 100.03125 200.886719 100.199219 C 201.695312 100.367188 202.511719 100.496094 203.332031 100.589844 L 201.640625 136.863281 C 177.519531 195.8125 135.753906 197.257812 81.394531 243.203125 C 32.121094 284.839844 62.648438 325.257812 70.847656 334.515625 L 54.972656 334.515625 L 54.972656 363.261719 L 55.925781 363.261719 C 53.6875 363.914062 51.457031 364.582031 49.226562 365.269531 C 45.089844 366.601562 40.949219 367.914062 36.828125 369.261719 C 32.726562 370.699219 28.621094 372.113281 24.542969 373.585938 C 20.480469 375.113281 16.433594 376.667969 12.394531 378.25 C 8.386719 379.910156 4.382812 381.566406 0.410156 383.289062 C 4.632812 382.3125 8.832031 381.253906 13.027344 380.21875 C 17.234375 379.238281 21.441406 378.261719 25.632812 377.25 C 29.847656 376.328125 34.050781 375.375 38.25 374.4375 L 50.882812 371.789062 C 67.503906 368.433594 84.175781 365.558594 100.902344 363.269531 L 101.625 363.167969 C 118.589844 360.859375 135.601562 359.128906 152.652344 357.96875 C 169.707031 356.808594 186.769531 356.273438 203.847656 356.363281 C 220.921875 356.433594 237.984375 357.101562 255.035156 358.363281 C 270.785156 359.519531 286.507812 361.15625 302.195312 363.269531 C 303.488281 363.4375 304.777344 363.609375 306.0625 363.789062 C 323.035156 366.128906 339.960938 369.015625 356.847656 372.320312 L 363.171875 373.582031 C 365.285156 374.011719 367.402344 374.410156 369.507812 374.871094 L 382.152344 377.566406 L 394.796875 380.394531 C 399.003906 381.378906 403.210938 382.367188 407.453125 383.285156 C 403.460938 381.609375 399.4375 380.003906 395.410156 378.398438 Z M 395.410156 378.394531 " fill-opacity="1" fill-rule="nonzero"/></g><g clip-path="url(#fe3fa72aba)"><g transform="matrix(1, 0, 0, 1, 447, 75)"><g clip-path="url(#5c6eefbf23)"><g fill="#f5f5f5" fill-opacity="1"><g transform="translate(2.678391, 220.66716)"><g><path d="M 6.625 0 L 6.625 -16.78125 L 13.46875 -17.40625 C 17.476562 -17.820312 19.484375 -19.757812 19.484375 -23.21875 L 19.484375 -119.59375 L 7.671875 -120.21875 L 7.671875 -137.828125 L 66.953125 -137.828125 C 82.421875 -137.828125 94.472656 -134.195312 103.109375 -126.9375 C 111.742188 -119.6875 116.0625 -108.804688 116.0625 -94.296875 C 116.0625 -79.796875 111.15625 -68.503906 101.34375 -60.421875 C 91.539062 -52.335938 78.554688 -48.296875 62.390625 -48.296875 L 44.765625 -48.296875 L 44.765625 -18.234375 L 64.671875 -17.625 L 64.671875 0 Z M 44.765625 -68.390625 L 59.6875 -68.390625 C 79.863281 -68.390625 89.953125 -76.613281 89.953125 -93.0625 C 89.953125 -103.007812 87.359375 -109.609375 82.171875 -112.859375 C 76.992188 -116.109375 68.738281 -117.734375 57.40625 -117.734375 L 44.765625 -117.734375 Z M 44.765625 -68.390625 "/></g></g></g><g fill="#f5f5f5" fill-opacity="1"><g transform="translate(124.95922, 220.66716)"><g><path d="M 105.5 0 L 7.046875 0 L 7.046875 -16.78125 L 13.890625 -17.40625 C 17.890625 -17.820312 19.890625 -19.757812 19.890625 -23.21875 L 19.890625 -119.59375 L 8.078125 -120.21875 L 8.078125 -137.828125 L 103.015625 -137.828125 L 103.015625 -103.421875 L 81.875 -101.96875 L 81.875 -110.265625 C 81.875 -112.609375 81.523438 -114.265625 80.828125 -115.234375 C 80.140625 -116.203125 78.484375 -116.6875 75.859375 -116.6875 L 45.1875 -116.6875 L 45.1875 -81.25 L 93.0625 -81.25 L 93.0625 -60.109375 L 45.1875 -60.109375 L 45.1875 -21.34375 L 78.546875 -21.34375 C 81.035156 -21.34375 82.625 -21.859375 83.3125 -22.890625 C 84.007812 -23.929688 84.359375 -25.628906 84.359375 -27.984375 L 84.359375 -38.34375 L 105.5 -36.890625 Z M 105.5 0 "/></g></g></g><g fill="#f5f5f5" fill-opacity="1"><g transform="translate(238.742585, 220.66716)"><g><path d="M 7.046875 0 L 7.046875 -16.78125 L 13.890625 -17.40625 C 17.890625 -17.820312 19.890625 -19.757812 19.890625 -23.21875 L 19.890625 -119.59375 L 8.078125 -120.21875 L 8.078125 -137.828125 L 64.875 -137.828125 C 85.1875 -137.828125 101.039062 -132.4375 112.4375 -121.65625 C 123.84375 -110.882812 129.546875 -94.925781 129.546875 -73.78125 C 129.546875 -60.65625 127.816406 -49.222656 124.359375 -39.484375 C 120.898438 -29.742188 116.203125 -22.109375 110.265625 -16.578125 C 98.378906 -5.523438 83.59375 0 65.90625 0 Z M 45.1875 -117.734375 L 45.1875 -19.890625 L 66.328125 -19.890625 C 78.210938 -19.890625 87.46875 -24.171875 94.09375 -32.734375 C 100.726562 -41.304688 104.046875 -53.75 104.046875 -70.0625 C 104.046875 -101.84375 90.570312 -117.734375 63.625 -117.734375 Z M 45.1875 -117.734375 "/></g></g></g><g fill="#f5f5f5" fill-opacity="1"><g transform="translate(376.567576, 220.66716)"><g><path d="M 41.65625 -113.578125 L 41.65625 -44.765625 C 41.65625 -35.097656 43.96875 -28.296875 48.59375 -24.359375 C 53.226562 -20.421875 59.863281 -18.453125 68.5 -18.453125 C 77.132812 -18.453125 83.832031 -20.59375 88.59375 -24.875 C 93.363281 -29.15625 95.75 -35.441406 95.75 -43.734375 L 95.75 -119.59375 L 83.734375 -120.21875 L 83.734375 -137.828125 L 132.859375 -137.828125 L 132.859375 -121.046875 L 126.015625 -120.421875 C 122.003906 -120.003906 120 -117.929688 120 -114.203125 L 120 -40.203125 C 120 -26.804688 115.300781 -16.304688 105.90625 -8.703125 C 96.507812 -1.109375 83.519531 2.6875 66.9375 2.6875 C 50.363281 2.6875 37.828125 -1.003906 29.328125 -8.390625 C 20.828125 -15.785156 16.578125 -27.5 16.578125 -43.53125 L 16.578125 -119.59375 L 4.5625 -120.21875 L 4.5625 -137.828125 L 54.71875 -137.828125 L 54.71875 -121.046875 L 47.875 -120.421875 C 45.664062 -120.140625 44.078125 -119.550781 43.109375 -118.65625 C 42.140625 -117.757812 41.65625 -116.066406 41.65625 -113.578125 Z M 41.65625 -113.578125 "/></g></g></g><g fill="#f5f5f5" fill-opacity="1"><g transform="translate(513.149044, 220.66716)"><g><path d="M 105.078125 0 L 6.625 0 L 6.625 -16.78125 L 13.46875 -17.40625 C 17.476562 -17.820312 19.484375 -19.757812 19.484375 -23.21875 L 19.484375 -119.59375 L 7.671875 -120.21875 L 7.671875 -137.828125 L 57.625 -137.828125 L 57.625 -121.046875 L 50.78125 -120.421875 C 46.769531 -120.003906 44.765625 -117.789062 44.765625 -113.78125 L 44.765625 -21.34375 L 79.171875 -21.34375 C 81.109375 -21.34375 82.382812 -21.859375 83 -22.890625 C 83.625 -23.929688 83.9375 -25.628906 83.9375 -27.984375 L 83.9375 -42.484375 L 105.078125 -41.03125 Z M 105.078125 0 "/></g></g></g><g fill="#f5f5f5" fill-opacity="1"><g transform="translate(624.445314, 220.66716)"><g><path d="M 19.484375 -24.25 L 19.484375 -119.59375 L 7.671875 -120.21875 L 7.671875 -137.828125 L 57.828125 -137.828125 L 57.828125 -121.046875 L 50.984375 -120.421875 C 46.984375 -120.003906 44.984375 -117.789062 44.984375 -113.78125 L 44.984375 -18.234375 L 56.796875 -17.625 L 56.796875 0 L 6.625 0 L 6.625 -16.78125 L 13.46875 -17.40625 C 15.539062 -17.6875 17.0625 -18.273438 18.03125 -19.171875 C 19 -20.066406 19.484375 -21.757812 19.484375 -24.25 Z M 19.484375 -24.25 "/></g></g></g><g fill="#f5f5f5" fill-opacity="1"><g transform="translate(688.072776, 220.66716)"><g/></g></g><g fill="#f5f5f5" fill-opacity="1"><g transform="translate(729.523921, 220.66716)"><g><path d="M 51.40625 -137.828125 L 86.640625 -44.140625 L 87.046875 -44.140625 L 122.5 -137.828125 L 163.53125 -137.828125 L 163.53125 -121.046875 L 156.6875 -120.421875 C 152.539062 -120.003906 150.539062 -117.585938 150.6875 -113.171875 L 155.859375 -18.234375 L 168.71875 -17.625 L 168.71875 0 L 118.765625 0 L 118.765625 -16.78125 L 126.21875 -17.40625 C 129.957031 -17.6875 131.753906 -19.484375 131.609375 -22.796875 L 127.671875 -95.96875 L 127.265625 -95.96875 L 95.34375 -13.265625 L 75.65625 -13.265625 L 44.140625 -95.140625 L 43.734375 -95.140625 L 39.59375 -18.234375 L 53.0625 -17.625 L 53.0625 0 L 4.140625 0 L 4.140625 -16.78125 L 11.609375 -17.40625 C 14.785156 -17.6875 16.507812 -19.550781 16.78125 -23 L 22.390625 -119.390625 L 9.734375 -120.21875 L 9.734375 -137.828125 Z M 51.40625 -137.828125 "/></g></g></g><g fill="#f5f5f5" fill-opacity="1"><g transform="translate(902.375046, 220.66716)"><g><path d="M 14.09375 -23.21875 L 47.46875 -119.796875 L 34.40625 -121.046875 L 34.40625 -137.828125 L 81.875 -137.828125 L 124.15625 -18.234375 L 124.359375 -18.234375 L 136.171875 -17.625 L 136.171875 0 L 82.703125 0 L 82.703125 -16.78125 L 90.578125 -17.40625 C 92.921875 -17.6875 94.503906 -18.238281 95.328125 -19.0625 C 96.160156 -19.894531 96.234375 -21.414062 95.546875 -23.625 L 91.203125 -36.484375 L 42.703125 -36.484375 L 36.484375 -18.234375 L 48.921875 -17.625 L 48.921875 0 L 1.03125 0 L 1.03125 -16.78125 L 7.875 -17.40625 C 10.78125 -17.6875 12.851562 -19.625 14.09375 -23.21875 Z M 66.953125 -114.625 L 47.671875 -55.546875 L 86.21875 -55.546875 L 67.5625 -114.625 Z M 66.953125 -114.625 "/></g></g></g><g fill="#f5f5f5" fill-opacity="1"><g transform="translate(1039.578248, 220.66716)"><g><path d="M 49.953125 -18.65625 C 66.535156 -18.65625 74.828125 -25.285156 74.828125 -38.546875 C 74.828125 -45.460938 71.164062 -50.578125 63.84375 -53.890625 C 59.96875 -55.828125 54.957031 -57.625 48.8125 -59.28125 C 42.664062 -60.9375 37.550781 -62.628906 33.46875 -64.359375 C 29.394531 -66.085938 25.285156 -68.46875 21.140625 -71.5 C 12.984375 -77.582031 8.90625 -86.945312 8.90625 -99.59375 C 8.90625 -112.238281 13.289062 -122.1875 22.0625 -129.4375 C 30.84375 -136.6875 42.3125 -140.3125 56.46875 -140.3125 C 70.632812 -140.3125 83.800781 -137.484375 95.96875 -131.828125 L 95.96875 -100.734375 L 74.828125 -99.28125 L 74.828125 -111.296875 C 74.828125 -113.367188 74.550781 -114.890625 74 -115.859375 C 72.476562 -118.484375 67.601562 -119.796875 59.375 -119.796875 C 51.15625 -119.796875 45.078125 -118.34375 41.140625 -115.4375 C 37.203125 -112.539062 35.234375 -108.050781 35.234375 -101.96875 C 35.234375 -97.550781 36.890625 -93.6875 40.203125 -90.375 C 42.421875 -88.15625 45.703125 -86.320312 50.046875 -84.875 C 54.398438 -83.425781 59.03125 -81.941406 63.9375 -80.421875 C 68.84375 -78.898438 73.195312 -77.238281 77 -75.4375 C 80.800781 -73.644531 84.773438 -71.160156 88.921875 -67.984375 C 97.347656 -61.765625 101.5625 -52.160156 101.5625 -39.171875 C 101.5625 -26.179688 96.894531 -15.957031 87.5625 -8.5 C 78.238281 -1.039062 65.941406 2.6875 50.671875 2.6875 C 35.410156 2.6875 21.695312 -0.140625 9.53125 -5.796875 L 9.53125 -38.546875 L 30.671875 -40 L 30.671875 -27.359375 C 30.671875 -25.285156 30.945312 -23.765625 31.5 -22.796875 C 32.050781 -21.828125 33.742188 -20.894531 36.578125 -20 C 39.410156 -19.101562 43.867188 -18.65625 49.953125 -18.65625 Z M 49.953125 -18.65625 "/></g></g></g><g fill="#f5f5f5" fill-opacity="1"><g transform="translate(1147.765686, 220.66716)"><g><path d="M 81.453125 -27.78125 C 79.109375 -7.46875 65.5 2.6875 40.625 2.6875 C 27.632812 2.6875 16.023438 -0.210938 5.796875 -6.015625 L 5.796875 -42.28125 L 26.9375 -43.734375 L 26.9375 -27.359375 C 26.9375 -25.285156 27.210938 -23.765625 27.765625 -22.796875 C 28.328125 -21.828125 29.78125 -20.894531 32.125 -20 C 34.476562 -19.101562 38.101562 -18.65625 43 -18.65625 C 47.90625 -18.65625 51.460938 -20.140625 53.671875 -23.109375 C 55.890625 -26.078125 57 -30.878906 57 -37.515625 L 57 -119.390625 L 40.828125 -120.21875 L 40.828125 -137.828125 L 95.140625 -137.828125 L 95.140625 -121.046875 L 88.296875 -120.421875 C 84.285156 -120.003906 82.28125 -117.863281 82.28125 -114 L 82.28125 -49.53125 C 82.28125 -39.726562 82.003906 -32.476562 81.453125 -27.78125 Z M 81.453125 -27.78125 "/></g></g></g><g fill="#f5f5f5" fill-opacity="1"><g transform="translate(1246.004943, 220.66716)"><g><path d="M 19.484375 -24.25 L 19.484375 -119.59375 L 7.671875 -120.21875 L 7.671875 -137.828125 L 57.828125 -137.828125 L 57.828125 -121.046875 L 50.984375 -120.421875 C 46.984375 -120.003906 44.984375 -117.789062 44.984375 -113.78125 L 44.984375 -18.234375 L 56.796875 -17.625 L 56.796875 0 L 6.625 0 L 6.625 -16.78125 L 13.46875 -17.40625 C 15.539062 -17.6875 17.0625 -18.273438 18.03125 -19.171875 C 19 -20.066406 19.484375 -21.757812 19.484375 -24.25 Z M 19.484375 -24.25 "/></g></g></g><g fill="#f5f5f5" fill-opacity="1"><g transform="translate(1309.632351, 220.66716)"><g><path d="M 7.046875 0 L 7.046875 -16.78125 L 13.890625 -17.40625 C 17.890625 -17.820312 19.890625 -19.757812 19.890625 -23.21875 L 19.890625 -119.59375 L 8.078125 -120.21875 L 8.078125 -137.828125 L 64.875 -137.828125 C 85.1875 -137.828125 101.039062 -132.4375 112.4375 -121.65625 C 123.84375 -110.882812 129.546875 -94.925781 129.546875 -73.78125 C 129.546875 -60.65625 127.816406 -49.222656 124.359375 -39.484375 C 120.898438 -29.742188 116.203125 -22.109375 110.265625 -16.578125 C 98.378906 -5.523438 83.59375 0 65.90625 0 Z M 45.1875 -117.734375 L 45.1875 -19.890625 L 66.328125 -19.890625 C 78.210938 -19.890625 87.46875 -24.171875 94.09375 -32.734375 C 100.726562 -41.304688 104.046875 -53.75 104.046875 -70.0625 C 104.046875 -101.84375 90.570312 -117.734375 63.625 -117.734375 Z M 45.1875 -117.734375 "/></g></g></g></g></g></g></svg>